<svg width="19" height="19" viewBox="0 0 19 19" fill="none" xmlns="http://www.w3.org/2000/svg">
<g id="GitDiff">
<path id="Vector" d="M14.7484 15.5444C15.8342 15.5444 16.7145 14.6874 16.7145 13.6302C16.7145 12.5731 15.8342 11.7161 14.7484 11.7161C13.6625 11.7161 12.7822 12.5731 12.7822 13.6302C12.7822 14.6874 13.6625 15.5444 14.7484 15.5444Z" stroke="#4E7C32" stroke-width="1.5" stroke-linecap="round" stroke-linejoin="round"/>
<path id="Vector_2" d="M14.7485 11.7161L14.7484 8.97344C14.7484 8.1032 14.3933 7.26861 13.7612 6.65326L11.097 4.05945" stroke="#4E7C32" stroke-width="1.5" stroke-linecap="round" stroke-linejoin="round"/>
<path id="Vector_3" d="M11.097 6.79396V4.05945H13.9057" stroke="#4E7C32" stroke-width="1.5" stroke-linecap="round" stroke-linejoin="round"/>
<path id="Vector_4" d="M5.19851 7.34088C6.28438 7.34088 7.16465 6.48389 7.16465 5.42673C7.16465 4.36957 6.28438 3.51257 5.19851 3.51257C4.11263 3.51257 3.23236 4.36957 3.23236 5.42673C3.23236 6.48389 4.11263 7.34088 5.19851 7.34088Z" stroke="#4E7C32" stroke-width="1.5" stroke-linecap="round" stroke-linejoin="round"/>
<path id="Vector_5" d="M5.19852 7.34094L5.19863 10.0836C5.19867 10.9538 5.55377 11.7884 6.18584 12.4038L8.8501 14.9976" stroke="#4E7C32" stroke-width="1.5" stroke-linecap="round" stroke-linejoin="round"/>
<path id="Vector_6" d="M8.84995 12.2631V14.9976H6.04117" stroke="#4E7C32" stroke-width="1.5" stroke-linecap="round" stroke-linejoin="round"/>
</g>
</svg>
