<svg width="19" height="19" viewBox="0 0 19 19" fill="none" xmlns="http://www.w3.org/2000/svg">
<g id="Heart">
<path id="Vector" d="M9.83332 15.5444C9.83332 15.5444 2.81137 11.7161 2.81137 7.06744C2.81151 6.24581 3.10394 5.44959 3.63894 4.81415C4.17394 4.1787 4.91848 3.74326 5.74598 3.58186C6.57348 3.42045 7.43286 3.54305 8.178 3.92879C8.92315 4.31454 9.50808 4.93963 9.83333 5.69779L9.83331 5.6978C10.1586 4.93964 10.7435 4.31454 11.4886 3.9288C12.2338 3.54305 13.0932 3.42045 13.9207 3.58186C14.7482 3.74326 15.4927 4.1787 16.0277 4.81415C16.5627 5.44959 16.8551 6.24581 16.8553 7.06744C16.8553 11.7161 9.83332 15.5444 9.83332 15.5444Z" stroke="#4E7C32" stroke-width="1.5" stroke-linecap="round" stroke-linejoin="round"/>
</g>
</svg>
