<svg width="19" height="19" viewBox="0 0 19 19" fill="none" xmlns="http://www.w3.org/2000/svg">
<g id="Tote">
<path id="Vector" d="M15.5806 15.5444H4.22755C4.0893 15.5444 3.95591 15.4948 3.8529 15.405C3.74989 15.3153 3.68449 15.1917 3.66923 15.0579L2.67055 6.30749C2.66183 6.23105 2.66976 6.15367 2.69384 6.08041C2.71792 6.00716 2.7576 5.93967 2.81029 5.88236C2.86298 5.82504 2.9275 5.7792 2.99962 5.74781C3.07175 5.71642 3.14987 5.7002 3.22887 5.7002H16.5793C16.6583 5.7002 16.7364 5.71642 16.8085 5.74781C16.8806 5.7792 16.9452 5.82504 16.9978 5.88236C17.0505 5.93967 17.0902 6.00716 17.1143 6.08041C17.1384 6.15367 17.1463 6.23105 17.1376 6.30749L16.1389 15.0579C16.1236 15.1917 16.0582 15.3153 15.9552 15.405C15.8522 15.4948 15.7188 15.5444 15.5806 15.5444Z" stroke="white" stroke-width="1.5" stroke-linecap="round" stroke-linejoin="round"/>
<path id="Vector_2" d="M7.09485 7.88781V5.70021C7.09485 4.97497 7.39077 4.27944 7.91752 3.76662C8.44427 3.2538 9.15869 2.9657 9.90363 2.9657C10.6486 2.9657 11.363 3.2538 11.8897 3.76662C12.4165 4.27944 12.7124 4.97497 12.7124 5.70021V7.88781" stroke="white" stroke-width="1.5" stroke-linecap="round" stroke-linejoin="round"/>
</g>
</svg>
