<svg width="14" height="14" viewBox="0 0 14 14" fill="none" xmlns="http://www.w3.org/2000/svg">
<path d="M3.12332 13.7823H0.27935V4.83216H3.12332V13.7823ZM1.70133 3.57747C0.781228 3.57747 0.112061 2.9083 0.112061 1.9882C0.112061 1.06809 0.864874 0.398926 1.70133 0.398926C2.62144 0.398926 3.2906 1.06809 3.2906 1.9882C3.2906 2.9083 2.62144 3.57747 1.70133 3.57747ZM13.4954 13.7823H10.6514V8.9308C10.6514 7.50882 10.0659 7.09059 9.22945 7.09059C8.39299 7.09059 7.55653 7.75976 7.55653 9.01445V13.7823H4.71258V4.83216H7.38925V6.08684C7.64018 5.50132 8.64393 4.58122 10.0659 4.58122C11.6552 4.58122 13.3281 5.50132 13.3281 8.26163V13.7823H13.4954Z" fill="#F9F3EE"/>
</svg>
