<svg width="19" height="19" viewBox="0 0 19 19" fill="none" xmlns="http://www.w3.org/2000/svg">
<path d="M9.49992 15.0417C7.67909 15.0417 4.43325 14.8834 3.08742 14.5667C2.53325 14.4084 2.13742 14.0125 1.97909 13.4584C1.74159 12.5875 1.58325 10.7667 1.58325 9.50004C1.58325 8.23337 1.74159 6.41254 1.97909 5.54171C2.13742 4.98754 2.53325 4.59171 3.08742 4.43337C4.43325 4.11671 7.67909 3.95837 9.49992 3.95837C11.3208 3.95837 14.5666 4.11671 15.9124 4.43337C16.4666 4.59171 16.8624 4.98754 17.0208 5.54171C17.2583 6.41254 17.4166 8.23337 17.4166 9.50004C17.4166 10.7667 17.2583 12.5875 17.0208 13.4584C16.8624 14.0125 16.4666 14.4084 15.9124 14.5667C14.5666 14.8834 11.3208 15.0417 9.49992 15.0417Z" stroke="#F9F3EE" stroke-width="1.58333" stroke-linecap="round" stroke-linejoin="round"/>
<path d="M7.9165 11.8751L11.8748 9.50012L7.9165 7.12512V11.8751Z" stroke="#F9F3EE" stroke-width="1.58333" stroke-linecap="round" stroke-linejoin="round"/>
</svg>
