<svg width="17" height="17" viewBox="0 0 17 17" fill="none" xmlns="http://www.w3.org/2000/svg">
<path d="M5.52508 1.41663H11.4751C13.7417 1.41663 15.5834 3.25829 15.5834 5.52496V11.475C15.5834 12.5646 15.1506 13.6095 14.3801 14.38C13.6096 15.1505 12.5647 15.5833 11.4751 15.5833H5.52508C3.25841 15.5833 1.41675 13.7416 1.41675 11.475V5.52496C1.41675 4.43536 1.84959 3.39039 2.62005 2.61993C3.39051 1.84947 4.43548 1.41663 5.52508 1.41663ZM5.38341 2.83329C4.70711 2.83329 4.05851 3.10195 3.58029 3.58017C3.10207 4.05839 2.83341 4.70699 2.83341 5.38329V11.6166C2.83341 13.0262 3.97383 14.1666 5.38341 14.1666H11.6167C12.293 14.1666 12.9417 13.898 13.4199 13.4197C13.8981 12.9415 14.1667 12.2929 14.1667 11.6166V5.38329C14.1667 3.97371 13.0263 2.83329 11.6167 2.83329H5.38341ZM12.2188 3.89579C12.4537 3.89579 12.6789 3.98908 12.8449 4.15513C13.011 4.32117 13.1042 4.54638 13.1042 4.78121C13.1042 5.01604 13.011 5.24125 12.8449 5.40729C12.6789 5.57334 12.4537 5.66663 12.2188 5.66663C11.984 5.66663 11.7588 5.57334 11.5927 5.40729C11.4267 5.24125 11.3334 5.01604 11.3334 4.78121C11.3334 4.54638 11.4267 4.32117 11.5927 4.15513C11.7588 3.98908 11.984 3.89579 12.2188 3.89579ZM8.50008 4.95829C9.43939 4.95829 10.3402 5.33143 11.0044 5.99562C11.6686 6.65981 12.0417 7.56065 12.0417 8.49996C12.0417 9.43927 11.6686 10.3401 11.0044 11.0043C10.3402 11.6685 9.43939 12.0416 8.50008 12.0416C7.56077 12.0416 6.65994 11.6685 5.99574 11.0043C5.33155 10.3401 4.95841 9.43927 4.95841 8.49996C4.95841 7.56065 5.33155 6.65981 5.99574 5.99562C6.65994 5.33143 7.56077 4.95829 8.50008 4.95829ZM8.50008 6.37496C7.9365 6.37496 7.39599 6.59884 6.99748 6.99736C6.59896 7.39587 6.37508 7.93637 6.37508 8.49996C6.37508 9.06354 6.59896 9.60405 6.99748 10.0026C7.39599 10.4011 7.9365 10.625 8.50008 10.625C9.06367 10.625 9.60417 10.4011 10.0027 10.0026C10.4012 9.60405 10.6251 9.06354 10.6251 8.49996C10.6251 7.93637 10.4012 7.39587 10.0027 6.99736C9.60417 6.59884 9.06367 6.37496 8.50008 6.37496Z" fill="#F9F3EE"/>
</svg>
