<svg width="14" height="12" viewBox="0 0 14 12" fill="none" xmlns="http://www.w3.org/2000/svg">
<path d="M13.9995 1.90837C13.4977 2.15931 12.9958 2.24296 12.4103 2.3266C12.9958 1.99202 13.414 1.49014 13.5813 0.820978C13.0794 1.15556 12.4939 1.32285 11.8248 1.49014C11.3229 0.98827 10.5701 0.653687 9.81725 0.653687C8.06069 0.653687 6.72236 2.3266 7.14059 3.99952C4.88215 3.91587 2.87465 2.82848 1.45267 1.15556C0.699857 2.41025 1.11809 3.99952 2.28913 4.83598C1.8709 4.83598 1.45267 4.66869 1.03444 4.5014C1.03444 5.75608 1.95454 6.92712 3.20923 7.26171C2.791 7.34535 2.37277 7.429 1.95454 7.34535C2.28913 8.43275 3.29288 9.26921 4.54756 9.26921C3.54381 10.022 2.03819 10.4402 0.616211 10.273C1.8709 11.0258 3.29288 11.5276 4.7985 11.5276C9.9009 11.5276 12.7449 7.26171 12.5776 3.33035C13.1631 2.99577 13.665 2.49389 13.9995 1.90837Z" fill="#F9F3EE"/>
</svg>
